<svg width="209" height="194" viewBox="0 0 209 194" fill="none" xmlns="http://www.w3.org/2000/svg">
<path d="M104 4C105.562 6.34374 106.567 8.16054 107.594 10.7188C107.897 11.4728 108.2 12.2268 108.512 13.0037C108.838 13.8275 109.164 14.6512 109.5 15.5C109.845 16.3657 110.189 17.2314 110.544 18.1233C114.808 28.9213 118.781 39.8277 122.779 50.7261C124.489 55.3123 126.278 59.8673 128.075 64.4202C129 67 129 67 129 69C129.853 69.0228 130.707 69.0457 131.586 69.0692C139.634 69.2853 147.682 69.5056 155.73 69.7305C159.868 69.846 164.005 69.9598 168.143 70.0701C172.137 70.1765 176.131 70.2872 180.125 70.4008C181.648 70.4433 183.17 70.4844 184.693 70.5239C186.828 70.5796 188.963 70.6406 191.098 70.7029C192.313 70.7362 193.528 70.7695 194.779 70.8038C197.622 70.977 200.231 71.3555 203 72C199.489 75.5946 195.846 78.9519 192 82.1875C191.437 82.6624 190.875 83.1372 190.295 83.6265C185.869 87.3346 181.331 90.8783 176.734 94.3721C172.377 97.6874 168.144 101.132 163.922 104.617C158.348 109.163 152.665 113.57 147 118C149.291 127.375 151.703 136.713 154.199 146.035C154.482 147.092 154.764 148.148 155.055 149.237C156.231 153.631 157.408 158.024 158.59 162.416C159.463 165.663 160.332 168.911 161.199 172.16C161.466 173.146 161.733 174.131 162.007 175.146C163.325 180.095 164.414 184.911 165 190C162.367 188.324 159.734 186.649 157.102 184.973C155.244 183.791 153.384 182.611 151.523 181.434C135.866 171.517 120.394 161.319 105 151C103.205 152.015 101.414 153.037 99.625 154.062C98.1284 154.915 98.1284 154.915 96.6016 155.785C93.7543 157.48 91.0559 159.34 88.3516 161.254C82.6038 165.319 76.6918 169.101 70.75 172.875C68.5481 174.279 66.3463 175.682 64.1445 177.086C63.0922 177.756 62.0398 178.426 60.9556 179.116C57.1097 181.567 53.272 184.031 49.4375 186.5C48.3637 187.191 47.2899 187.882 46.1836 188.594C45.463 189.058 44.7424 189.522 44 190C42.553 187.106 43.4778 185.495 44.3076 182.392C44.6183 181.217 44.9291 180.042 45.2492 178.831C45.5982 177.541 45.9474 176.251 46.2969 174.961C46.6504 173.638 47.0033 172.315 47.3558 170.991C48.098 168.211 48.845 165.432 49.5957 162.654C50.5526 159.112 51.4997 155.568 52.4434 152.023C53.1729 149.285 53.9065 146.548 54.6415 143.812C55.1611 141.876 55.6781 139.94 56.195 138.003C57.8588 131.858 59.7049 125.935 62 120C62 119.34 62 118.68 62 118C60.2004 116.481 58.3952 115.079 56.5 113.688C51.261 109.754 46.1309 105.714 41.0625 101.562C35.9545 97.3878 30.8199 93.2537 25.625 89.1875C24.7659 88.5146 24.7659 88.5146 23.8894 87.8281C22.7838 86.9625 21.6781 86.0969 20.5723 85.2314C18.168 83.3483 15.7686 81.4592 13.375 79.5625C12.2419 78.6672 12.2419 78.6672 11.0859 77.7539C8.93146 75.9424 6.96055 74.0182 5 72C9.02697 71.0602 12.8635 70.8145 16.9934 70.7029C17.6769 70.6832 18.3604 70.6636 19.0646 70.6433C21.3099 70.5798 23.5553 70.5223 25.8008 70.4648C27.3631 70.4218 28.9253 70.3784 30.4876 70.3346C34.5892 70.2207 38.6909 70.1119 42.7927 70.0042C46.9823 69.8933 51.1718 69.7775 55.3613 69.6621C63.5741 69.4366 71.787 69.2166 80 69C80.1775 68.3849 80.3551 67.7697 80.538 67.1359C82.262 61.2633 84.1973 55.5237 86.3633 49.8008C86.6777 48.9627 86.9922 48.1245 87.3162 47.261C87.9777 45.5 88.6408 43.7396 89.3054 41.9797C90.3031 39.3375 91.2955 36.6933 92.2871 34.0488C96.0702 23.9821 99.9545 13.9644 104 4Z" fill="#C69807"/>
<path d="M105 7C107.659 10.3974 109.089 13.4857 110.562 17.5625C111.083 18.987 111.604 20.4115 112.125 21.8359C112.416 22.64 112.707 23.444 113.007 24.2725C114.57 28.5676 116.16 32.8526 117.747 37.1384C118.603 39.4472 119.456 41.7566 120.309 44.0667C122.827 50.8838 125.412 57.6687 128.08 64.429C129 67 129 67 129 69C129.853 69.0228 130.706 69.0457 131.586 69.0692C139.634 69.2853 147.682 69.5056 155.73 69.7305C159.867 69.846 164.005 69.9598 168.142 70.0701C172.137 70.1765 176.131 70.2872 180.125 70.4008C181.647 70.4433 183.17 70.4844 184.692 70.5239C186.828 70.5796 188.963 70.6406 191.098 70.7029C192.92 70.7528 192.92 70.7528 194.779 70.8038C197.622 70.977 200.23 71.3555 203 72C199.489 75.5946 195.846 78.9519 192 82.1875C191.437 82.6624 190.875 83.1372 190.295 83.6265C185.868 87.3346 181.331 90.8783 176.734 94.3721C172.377 97.6874 168.143 101.132 163.922 104.617C158.348 109.163 152.665 113.57 147 118C149.291 127.417 151.732 136.787 154.269 146.141C154.853 148.303 155.437 150.466 156.021 152.629C156.923 155.968 157.828 159.306 158.741 162.642C159.634 165.91 160.515 169.181 161.394 172.453C161.671 173.454 161.948 174.455 162.234 175.486C162.481 176.415 162.728 177.345 162.983 178.302C163.204 179.115 163.426 179.928 163.653 180.766C164.026 183.171 163.757 184.708 163 187C156.229 177.881 149.624 168.66 143.129 159.344C139.737 154.48 136.329 149.631 132.875 144.812C129.255 139.761 125.651 134.699 122.062 129.625C121.621 129.002 121.179 128.379 120.724 127.738C119.781 126.403 118.854 125.057 117.94 123.702C116.457 121.637 114.955 119.762 113.304 117.841C103.893 106.353 103.52 96.4311 103.925 82C103.946 79.8257 103.962 77.6514 103.973 75.4771C104.014 69.8073 104.122 64.1408 104.244 58.4723C104.358 52.6669 104.407 46.8609 104.463 41.0547C104.58 29.7017 104.767 18.3511 105 7Z" fill="#FEEC54"/>
<path d="M104 4C106.659 7.39741 109.089 13.4857 110.562 17.5625C111.083 18.987 111.604 20.4115 112.125 21.8359C112.416 22.64 112.707 23.444 113.007 24.2725C114.57 28.5676 116.16 32.8526 117.747 37.1384C118.603 39.4472 119.456 41.7566 120.309 44.0667C120.713 45.1623 121.118 46.2579 121.535 47.3867C121.933 48.47 122.332 49.5533 122.742 50.6694C123.617 52.986 124.524 55.2905 125.456 57.5845C125.923 58.7387 126.39 59.8929 126.871 61.082C127.302 62.1221 127.733 63.1621 128.177 64.2336C129.035 67.1191 129.118 68.2608 128 71C124.249 77.2652 119.933 83.1805 115.519 88.9922C113.699 91.3967 111.899 93.8114 110.125 96.25C109.529 97.0595 108.934 97.8691 108.32 98.7031C106.667 101.136 106.667 101.136 107 105C108.268 105.26 109.537 105.521 110.843 105.789C116.184 106.978 121.32 108.626 126.5 110.375C127.385 110.666 128.271 110.958 129.183 111.258C131.803 112.135 134.4 113.066 137 114C138.256 114.387 138.256 114.387 139.537 114.782C142.864 115.956 145.277 116.863 147.213 119.908C148.188 122.435 148.865 124.929 149.5 127.562C149.766 128.54 150.033 129.517 150.307 130.523C151.244 134.006 152.121 137.502 153 141C153.782 144.021 154.573 147.04 155.363 150.059C157.134 156.85 158.876 163.649 160.58 170.458C161.371 173.603 163.07 178.393 164 181.5C164.93 184.607 165.641 186.647 164.5 189.5C157.73 180.381 149.624 168.66 143.129 159.344C139.737 154.48 136.329 149.631 132.875 144.812C129.255 139.761 125.651 134.699 122.062 129.625C121.621 129.002 121.179 128.379 120.724 127.738C119.781 126.403 118.854 125.057 117.94 123.702C116.457 121.637 114.955 119.762 113.304 117.841C103.893 106.353 103.52 96.4311 103.925 82C103.946 79.8257 103.962 77.6514 103.973 75.4771C104.014 69.8073 103.878 63.8082 104 58.1397C104.113 52.3343 103.945 46.8062 104 41C104 29.5 103.768 15.3511 104 4Z" fill="#FEF174"/>
<path d="M104 104C106.452 106.376 108.645 108.709 110.593 111.512C111.06 112.178 111.527 112.844 112.007 113.531C112.5 114.242 112.992 114.954 113.5 115.688C114.574 117.225 115.648 118.763 116.722 120.301C117.268 121.084 117.813 121.867 118.375 122.674C119.906 124.866 121.448 127.05 122.996 129.23C128.26 136.646 133.449 144.105 138.562 151.625C144.19 159.892 150.013 167.99 156 176C156.444 176.596 156.889 177.191 157.347 177.805C159.89 181.209 162.441 184.607 165 188C164.67 188.66 165.34 189.32 165 190C164.218 189.475 162.437 188.951 161.632 188.41C153.19 182.755 144.697 177.179 136.187 171.625C128.252 166.445 120.325 161.252 112.437 156C111.688 155.502 110.938 155.004 110.166 154.491C105.124 151.124 105.124 151.124 104 150C103.907 148.557 103.882 147.11 103.886 145.664C103.886 144.743 103.886 143.822 103.886 142.873C103.892 141.872 103.897 140.871 103.902 139.84C103.903 138.82 103.905 137.801 103.906 136.75C103.912 133.479 103.924 130.208 103.937 126.938C103.942 124.726 103.947 122.514 103.951 120.303C103.962 114.868 103.979 109.434 104 104Z" fill="#AB7501"/>
<path d="M5 72C11.1738 73.2613 17.121 74.8861 23.1016 76.8633C23.9411 77.1371 24.7806 77.411 25.6456 77.6932C28.3067 78.5623 30.9659 79.4373 33.625 80.3125C35.384 80.8877 37.1431 81.4626 38.9023 82.0371C45.9956 84.3564 53.0841 86.6885 60.1587 89.0641C67.9247 91.6709 75.7366 94.0764 83.5898 96.4043C90.1519 98.3729 96.5855 100.594 103 103C102 105 102 105 99.4556 106.053C98.3487 106.42 97.2419 106.786 96.1016 107.164C94.9002 107.564 93.6988 107.963 92.4609 108.375C91.8316 108.58 91.2022 108.785 90.5537 108.996C88.6368 109.621 86.693 110.171 84.8125 110.898C75.5 114.5 78 113.5 74.5 115C73.7472 115.323 66.8077 117.673 66 118C61.4919 119.825 62.1481 118.5 60 117C57.8519 115.5 57.5 115 54.5 112.625C53.4444 111.705 52.387 110.787 51.3281 109.871C50.7822 109.395 50.2363 108.919 49.6738 108.429C46.9363 106.092 44.0941 103.893 41.25 101.688C35.3142 97.0614 29.4654 92.3353 23.6367 87.5752C19.412 84.1302 15.1501 80.7471 10.7969 77.4648C8.71992 75.7717 6.86664 73.9203 5 72Z" fill="#AF7900"/>
<path d="M103 106C103.33 106 103.66 106 104 106C104.373 112.225 104.644 118.267 104.824 124.5C104.899 126.615 104.824 143.5 104.824 145.5C104.824 149.5 104.824 150.985 104 151.5C100 154 95 157.5 90.8738 160.118C88.3511 161.305 86.118 162.815 83.8281 164.398C78.8942 167.613 73.9503 170.811 69 174C68.1204 174.567 67.2408 175.133 66.3345 175.717C63.7474 177.38 61.1559 179.035 58.5625 180.688C57.7758 181.193 56.9892 181.698 56.1787 182.218C52.544 184.523 48.102 188.605 44 190C46.5689 185.314 50.296 179.139 53.625 174.938C61.926 164.321 69.5278 153.249 77.106 142.11C81.3882 135.839 85.8236 129.699 90.3477 123.602C93.6132 119.193 96.7748 114.711 99.9167 110.214C100.92 108.792 101.957 107.393 103 106Z" fill="#E3B313"/>
<path d="M74.5472 68.8495C79.5089 68.616 79.5089 68.616 81.9429 70.5227C82.382 71.2296 82.821 71.9365 83.2734 72.6648C83.7837 73.4514 84.2939 74.2379 84.8196 75.0484C85.5895 76.3242 85.5895 76.3242 86.375 77.6257C87.4895 79.3649 88.6054 81.1032 89.7227 82.8406C90.2694 83.7093 90.8161 84.5779 91.3794 85.4729C93.7295 89.1386 96.2545 92.6659 98.8125 96.1882C99.6317 97.3274 100.451 98.4667 101.27 99.6062C101.841 100.396 102.412 101.187 103 102.001C100.043 103.479 98.4365 102.393 95.3164 101.403C94.0997 101.021 92.883 100.638 91.6294 100.244C90.2737 99.809 88.918 99.3737 87.5625 98.9382C86.1523 98.4909 84.742 98.0439 83.3315 97.5974C78.5498 96.0792 73.7744 94.5419 69 93.0007C68.1144 92.7149 67.2287 92.4291 66.3162 92.1346C46.8476 85.8467 24.4011 78.4936 5 72C9.5 71.5 11.5 71 15.7915 70.5901C17.0068 70.5502 18.2221 70.5103 19.4743 70.4692C20.8084 70.4352 22.1425 70.4015 23.4766 70.3679C24.8446 70.3268 26.2127 70.2848 27.5807 70.242C31.1908 70.1315 34.8013 70.0328 38.4119 69.9363C41.3398 69.8562 44.2675 69.7681 47.1952 69.6794C62.6466 69.2117 62.6466 69.2117 68.9047 69.079C70.7865 69.0314 72.6681 68.9611 74.5472 68.8495Z" fill="#D8A70A"/>
<path d="M131.98 68.5957C133.809 68.6623 133.809 68.6623 135.675 68.7303C136.685 68.7587 136.685 68.7587 137.715 68.7876C139.94 68.855 142.163 68.9512 144.387 69.0477C145.929 69.1 147.472 69.1505 149.015 69.1993C153.075 69.3326 157.133 69.4904 161.192 69.6533C165.334 69.8151 169.476 69.9539 173.619 70.0945C181.747 70.374 189.874 70.6793 198 71.0008C199 71.0404 202.495 70.99 203 72C197.189 74.0503 187.377 77.0955 181.562 79.1348C179.592 79.8266 177.623 80.52 175.654 81.2149C165.518 84.7917 155.393 88.2885 145.057 91.2465C140.216 92.632 135.417 94.1174 130.629 95.6766C129.958 95.8949 129.287 96.1132 128.596 96.3381C125.884 97.2234 123.173 98.113 120.462 99.003C118.435 99.6674 116.407 100.328 114.379 100.989C112.609 101.57 112.609 101.57 110.803 102.162C108 103.001 108 103.001 106 103.001C107.356 99.1974 109.077 96.2852 111.5 93.0633C114.82 88.5961 118.088 84.0996 121.312 79.5633C122.87 77.3724 124.433 75.1854 126 73.0008C126.403 72.2831 126.805 71.5655 127.22 70.826C129 69.0008 129 69.0008 131.98 68.5957Z" fill="#DCAC0E"/>
<path d="M103 6C103.33 6 103.66 4 104 4C104 35.68 104 69.36 104 102C103.34 102 102.68 102 102 102C100.723 100.446 100.723 100.446 99.2776 98.2656C98.7428 97.4693 98.208 96.673 97.657 95.8525C97.0896 94.9937 96.5223 94.1349 95.9377 93.25C91.3845 86.4195 86.3109 77.7676 81.0003 71.5C79.5001 68.5 80.1928 68.0328 81.0002 64C81.8355 61.2693 82.8415 58.6204 83.8791 55.9609C84.1672 55.2053 84.4553 54.4497 84.7521 53.6712C85.6822 51.2365 86.6223 48.8058 87.5627 46.375C88.2022 44.7064 88.8411 43.0375 89.4792 41.3684C90.7369 38.0819 91.9983 34.7968 93.2634 31.5132C95.1373 26.6483 96.9924 21.7764 98.8437 16.9028C100.225 13.2669 101.612 9.63339 103 6Z" fill="#B47F00"/>
</svg>
